#!OML:ASF F:\VICON\USERDATA\Patient Classification 1\PLAYGROUND\JustinFriday\JustinFriday.ASF
:FULLY-SPECIFIED
:DEGREES
3690
root 2.31488 17.7081 46.3802 172.012 -241.564 172.176
lowerback 12.2964 2.92663 -0.517071
upperback 3.51064 3.9438 1.12789
thorax -3.31616 1.9942 0.872298
lowerneck -6.87339 4.0853 -1.71253
upperneck 26.965 6.66586 0.275964
head 9.56054 3.18633 1.09475
rclavicle -2.30093e-014 -5.56597e-015
rhumerus -30.989 -14.0173 -72.7333
rradius 26.9884
rwrist -8.61747
rhand -16.6827 340.599
rfingers 7.12502
rthumb 9.54148 -49.1652
lclavicle -2.30093e-014 -5.56597e-015
lhumerus -26.6118 8.15185 81.2891
lradius 100.054
lwrist -22.2301
lhand -29.2251 -4.42781
lfingers 7.12502
lthumb -2.56908 25.5365
rfemur -26.4701 2.84896 13.2997
rtibia 40.7785
rfoot 38.1118 -35.4933
rtoes 61.9227
lfemur -1.83828 -9.16684 -23.6502
ltibia 24.7955
lfoot -16.7994 -14.0293
ltoes 18.8331
3691
root 2.39839 17.7074 46.4975 171.581 -242.495 171.739
lowerback 12.2055 2.91541 -0.466931
upperback 3.61636 3.93885 1.13782
thorax -3.15355 1.99322 0.863617
lowerneck -6.67958 4.01538 -1.58591
upperneck 26.5674 6.54121 0.187551
head 9.39078 3.13819 1.01592
rclavicle -4.86525e-014 -8.34896e-015
rhumerus -31.0686 -13.7817 -72.7803
rradius 27.1279
rwrist -9.04543
rhand -16.9353 340.361
rfingers 7.12502
rthumb 9.29778 -49.4137
lclavicle -4.86525e-014 -8.34896e-015
lhumerus -26.5401 9.3598 80.1125
lradius 100.598
lwrist -22.8577
lhand -29.2454 -5.41145
lfingers 7.12502
lthumb -2.58867 24.5526
rfemur -25.9903 4.08459 12.8761
rtibia 37.7212
rfoot 39.5425 -35.1673
rtoes 62.6018
lfemur -1.61884 -9.5193 -23.3507
ltibia 25.3011
lfoot -16.6368 -15.1
ltoes 21.134
3692
root 2.477 17.7135 46.6122 170.412 -243.284 170.4
lowerback 12.2198 2.86359 -0.00320752
upperback 3.68721 3.93557 1.2788
thorax -3.06682 1.99252 0.752838
lowerneck -6.7736 3.98373 -1.51114
upperneck 26.4524 6.5075 0.0831486
head 9.37471 3.11929 0.96501
rclavicle -4.07509e-015 -9.93923e-015
rhumerus -31.1446 -13.3563 -72.8824
rradius 27.4108
rwrist -9.46725
rhand -17.2807 340.124
rfingers 7.12502
rthumb 8.96448 -49.6658
lclavicle -4.07509e-015 -9.93923e-015
lhumerus -26.0275 10.3715 78.8879
lradius 100.996
lwrist -23.3141
lhand -29.3573 -6.04803
lfingers 7.12502
lthumb -2.69674 23.9147
rfemur -25.6956 5.72644 12.806
rtibia 34.8699
rfoot 40.7533 -35.3838
rtoes 63.1416
lfemur -1.33701 -9.9893 -22.6043
ltibia 25.3907
lfoot -16.5095 -15.616
ltoes 22.2938
3693
root 2.55181 17.716 46.7298 169.847 -244.175 169.552
lowerback 12.1622 2.85001 0.172019
upperback 3.64312 3.9424 1.35607
thorax -3.0755 1.9958 0.735646
lowerneck -6.87 3.90424 -1.47848
upperneck 26.4993 6.41731 0.0251674
head 9.41382 3.07541 0.93549
rclavicle 3.29486e-014 -1.11319e-014
rhumerus -31.3157 -13.941 -72.5944
rradius 27.5569
rwrist -8.9999
rhand -17.1069 339.881
rfingers 7.12502
rthumb 9.13216 -49.9012
lclavicle 3.29486e-014 -1.11319e-014
lhumerus -24.8505 11.2642 77.7724
lradius 101.172
lwrist -23.8367
lhand -29.4284 -6.17057
lfingers 7.12502
lthumb -2.76541 23.7912
rfemur -25.6093 7.45358 12.3264
rtibia 32.0094
rfoot 40.4277 -37.973
rtoes 63.1234
lfemur -1.25111 -10.5164 -22.1113
ltibia 25.4869
lfoot -16.7064 -15.7271
ltoes 22.0719
3694
root 2.63906 17.7142 46.8506 170.18 -245.077 169.859
lowerback 11.9988 2.83136 -0.159904
upperback 3.78199 3.87932 1.34152
thorax -2.8613 1.96697 0.928151
lowerneck -7.12867 3.87753 -1.74245
upperneck 26.4859 6.42001 0.0594533
head 9.44803 3.05222 0.999068
rclavicle -2.58172e-014 -3.27995e-015
rhumerus -31.2011 -15.2505 -71.9981
rradius 27.4944
rwrist -7.58604
rhand -16.4703 339.885
rfingers 7.12502
rthumb 9.7464 -49.8696
lclavicle -2.58172e-014 -3.27995e-015
lhumerus -24.2519 12.3585 76.6613
lradius 101.739
lwrist -24.2896
lhand -29.9519 -6.37376
lfingers 7.12502
lthumb -3.27097 23.5809
rfemur -25.3836 8.79139 11.3733
rtibia 29.3089
rfoot 42.3209 -35.9102
rtoes 64.1134
lfemur -0.972483 -11.0801 -22.2649
ltibia 25.6429
lfoot -17.2057 -15.7148
ltoes 21.0498
3695
root 2.73151 17.7163 46.9668 169.82 -245.908 169.522
lowerback 11.7073 2.73585 -0.136139
upperback 4.11198 3.76155 1.35546
thorax -2.35583 1.91275 0.971455
lowerneck -7.49881 3.92785 -1.81347
upperneck 26.3534 6.51698 -0.0264209
head 9.4714 3.07523 0.998877
rclavicle -7.57618e-014 -1.21259e-014
rhumerus -30.7047 -15.9328 -71.7746
rradius 27.3305
rwrist -6.41055
rhand -16.241 340.146
rfingers 7.12502
rthumb 9.96763 -49.5984
lclavicle -7.57618e-014 -1.21259e-014
lhumerus -23.2872 13.7536 75.5446
lradius 102.136
lwrist -24.7095
lhand -30.4989 -6.91616
lfingers 7.12502
lthumb -3.79921 23.0297
rfemur -25.0619 9.91858 10.7929
rtibia 26.8976
rfoot 43.0173 -34.4
rtoes 64.9244
lfemur -0.501951 -11.5893 -22.1176
ltibia 25.6747
lfoot -17.6007 -15.8883
ltoes 20.5974
3696
root 2.81609 17.7076 47.074 168.715 -246.745 168.264
lowerback 11.7268 2.5419 0.140917
upperback 4.09604 3.54057 1.42201
thorax -2.36649 1.80444 0.914279
lowerneck -7.49704 4.05457 -1.39815
upperneck 26.3609 6.70736 -0.329365
head 9.49941 3.17201 0.84564
rclavicle -1.5207e-014 -8.94531e-015
rhumerus -30.5437 -15.6935 -71.9152
rradius 27.1795
rwrist -6.08722
rhand -16.6142 340.373
rfingers 7.12502
rthumb 9.60759 -49.3875
lclavicle -1.5207e-014 -8.94531e-015
lhumerus -22.3725 14.8341 73.7259
lradius 102.473
lwrist -25.3995
lhand -29.6006 -6.06519
lfingers 7.12502
lthumb -2.93171 23.8944
rfemur -25.008 10.9593 10.5272
rtibia 24.9231
rfoot 42.6623 -33.9617
rtoes 65.4553
lfemur -0.0115854 -12.2216 -21.5678
ltibia 25.3702
lfoot -17.9545 -15.9518
ltoes 19.8715
3697
root 2.89927 17.7156 47.1662 167.46 -247.604 166.785
lowerback 12.0123 2.28214 0.661266
upperback 3.90675 3.2609 1.43264
thorax -2.68647 1.6648 0.654661
lowerneck -7.49188 4.19242 -0.970049
upperneck 26.4817 6.91323 -0.595113
head 9.56766 3.2811 0.707249
rclavicle -1.1281e-014 -2.78299e-015
rhumerus -30.5577 -15.1712 -72.1615
rradius 27.1435
rwrist -6.38767
rhand -16.9468 340.401
rfingers 7.12502
rthumb 9.28669 -49.3748
lclavicle -1.1281e-014 -2.78299e-015
lhumerus -23.2211 16.3348 71.8287
lradius 103.298
lwrist -26.4741
lhand -29.0523 -5.9714
lfingers 7.12502
lthumb -2.40224 23.9948
rfemur -25.189 12.2076 10.0681
rtibia 23.4308
rfoot 39.9509 -36.497
rtoes 65.1506
lfemur 0.438301 -12.8959 -20.989
ltibia 24.8889
lfoot -16.6472 -16.9135
ltoes 25.1378
3698
root 2.98872 17.751 47.2855 166.335 -248.216 165.538
lowerback 12.108 2.24478 0.893814
upperback 3.85657 3.24445 1.49388
thorax -2.7816 1.65657 0.584797
lowerneck -7.40914 4.22188 -0.848822
upperneck 26.3418 6.94964 -0.681245
head 9.51001 3.30433 0.656066
rclavicle -1.41634e-014 1.31198e-014
rhumerus -30.6246 -14.9446 -72.2178
rradius 27.2298
rwrist -6.52325
rhand -17.0372 340.379
rfingers 7.12502
rthumb 9.1994 -49.4005
lclavicle -1.41634e-014 1.31198e-014
lhumerus -22.7705 17.5617 70.2602
lradius 103.392
lwrist -27.063
lhand -28.7155 -6.05033
lfingers 7.12502
lthumb -2.07694 23.9193
rfemur -25.3395 15.0548 9.11648
rtibia 22.1781
rfoot 34.712 -42.4662
rtoes 63.5826
lfemur 0.975308 -13.3631 -20.4021
ltibia 24.6021
lfoot -15.907 -17.6364
ltoes 27.9844
3699
root 3.08107 17.7339 47.4683 165.763 -248.98 165.459
lowerback 12.3926 2.37817 -0.154773
upperback 4.05212 3.31334 1.69594
thorax -2.80286 1.69324 1.36484
lowerneck -7.34153 4.22907 -0.848936
upperneck 26.2176 6.98176 -0.780502
head 9.45736 3.31299 0.621189
rclavicle 2.88238e-014 1.70955e-014
rhumerus -30.6527 -15.1706 -72.0004
rradius 27.2005
rwrist -6.02057
rhand -17.0668 340.49
rfingers 7.12502
rthumb 9.17087 -49.2909
lclavicle 2.88238e-014 1.70955e-014
lhumerus -22.0408 18.4375 68.9668
lradius 103.415
lwrist -27.2745
lhand -29.2256 -5.80192
lfingers 7.12502
lthumb -2.56956 24.1624
rfemur -24.7739 16.6987 8.84658
rtibia 20.9988
rfoot 35.284 -41.5407
rtoes 64.4818
lfemur 2.05888 -13.9782 -20.3202
ltibia 24.7511
lfoot -15.8685 -17.945
ltoes 29.5485
3700
root 3.16689 17.6933 47.612 165.271 -249.831 165.056
lowerback 12.5817 2.31754 -0.708943
upperback 4.14472 3.18065 1.91429
thorax -2.84649 1.62872 1.91747
lowerneck -7.69612 4.33863 -1.089
upperneck 26.3723 7.22978 -0.903797
head 9.57736 3.38602 0.658935
rclavicle 3.32467e-014 -8.54774e-015
rhumerus -30.3545 -15.0358 -71.7957
rradius 27.0936
rwrist -5.62207
rhand -16.9811 340.457
rfingers 7.12502
rthumb 9.2536 -49.3195
lclavicle 3.32467e-014 -8.54774e-015
lhumerus -21.6041 19.809 67.6825
lradius 103.515
lwrist -27.7969
lhand -29.8988 -5.82689
lfingers 7.12502
lthumb -3.21969 24.1285
rfemur -24.4875 14.8791 9.71217
rtibia 19.7435
rfoot 38.5657 -33.0497
rtoes 66.9209
lfemur 2.2631 -14.3303 -20.1255
ltibia 25.2861
lfoot -16.7677 -17.088
ltoes 27.0895
3701
root 3.24943 17.6403 47.735 163.777 -250.575 163.419
lowerback 12.7219 2.14437 -0.532364
upperback 4.22775 2.99122 2.18585
thorax -2.83391 1.53716 2.12661
lowerneck -8.12963 4.43975 -1.60126
upperneck 26.409 7.47288 -0.905489
head 9.65439 3.44128 0.78321
rclavicle 1.99033e-014 -1.20265e-014
rhumerus -29.8657 -14.4172 -71.7446
rradius 27.1043
rwrist -5.69637
rhand -16.8858 340.213
rfingers 7.12502
rthumb 9.34554 -49.5603
lclavicle 1.99033e-014 -1.20265e-014
lhumerus -21.3623 21.4748 66.2858
lradius 103.51
lwrist -28.3655
lhand -30.1912 -6.09384
lfingers 7.12502
lthumb -3.50213 23.8571
rfemur -24.3114 12.0165 11.2935
rtibia 18.5045
rfoot 39.3266 -23.8207
rtoes 68.4978
lfemur 2.10063 -15.3659 -19.7002
ltibia 26.1695
lfoot -18.9674 -16.6708
ltoes 20.2833
3702
root 3.33632 17.6084 47.8507 162.076 -251.192 161.631
lowerback 12.8993 2.08797 -0.228011
upperback 4.20339 2.96753 2.3637
thorax -2.94925 1.52769 2.13755
lowerneck -8.07229 4.41537 -1.78107
upperneck 26.342 7.48148 -0.943104
head 9.61471 3.42859 0.798136
rclavicle -5.10131e-014 7.7526e-015
rhumerus -29.7733 -14.0656 -71.6456
rradius 27.1653
rwrist -5.8578
rhand -16.8125 340.125
rfingers 7.12502
rthumb 9.4163 -49.6449
lclavicle -5.10131e-014 7.7526e-015
lhumerus -21.0243 22.559 64.7632
lradius 103.207
lwrist -28.702
lhand -30.1942 -5.9166
lfingers 7.12502
lthumb -3.505 24.0343
rfemur -24.0419 10.5171 12.3134
rtibia 17.4764
rfoot 38.6767 -19.3459
rtoes 68.9725
lfemur 1.99729 -15.9837 -19.0974
ltibia 27.1155
lfoot -18.2691 -17.6366
ltoes 24.4331
